<?xml version="1.0" encoding="UTF-8" standalone="no"?>
<!-- Created with Inkscape (http://www.inkscape.org/) -->
<svg
   xmlns:svg="http://www.w3.org/2000/svg"
   xmlns="http://www.w3.org/2000/svg"
   xmlns:xlink="http://www.w3.org/1999/xlink"
   version="1.0"
   width="400"
   height="332"
   id="svg2">
  <defs
     id="defs5">
    <linearGradient
       id="linearGradient2819">
      <stop
         style="stop-color:white;stop-opacity:1"
         offset="0"
         id="stop2821" />
      <stop
         style="stop-color:white;stop-opacity:1"
         offset="0.4107143"
         id="stop2921" />
      <stop
         style="stop-color:#9cf;stop-opacity:1"
         offset="1"
         id="stop2823" />
    </linearGradient>
    <linearGradient
       id="linearGradient2772">
      <stop
         style="stop-color:white;stop-opacity:1"
         offset="0"
         id="stop2774" />
      <stop
         style="stop-color:white;stop-opacity:1"
         offset="0.16932398"
         id="stop2887" />
      <stop
         style="stop-color:#edc;stop-opacity:1"
         offset="0.36134845"
         id="stop2780" />
      <stop
         style="stop-color:#9cf;stop-opacity:1"
         offset="0.6173811"
         id="stop2889" />
      <stop
         style="stop-color:#9cf;stop-opacity:1"
         offset="1"
         id="stop2776" />
    </linearGradient>
    <mask
       id="mask2761">
      <path
         d="M 281.5,87.25 C 163.1173,181.45514 64.982893,280.99684 11.6875,391.75 L 15,391.75 C 15,391.75 21.5,382.25 26.25,378.25 C 31,374.25 45.5,364.5 45.5,364.5 C 45.5,364.5 57.982756,326.62206 83.792154,289.85251 C 109.60155,253.08295 145.664,218.08117 153.08862,210.30299 C 160.51324,202.52482 176.125,185.75 176.125,185.75"
         style="fill:white;fill-opacity:1;fill-rule:evenodd;stroke:white;stroke-width:1.25;stroke-linecap:butt;stroke-linejoin:miter;stroke-miterlimit:4;stroke-dasharray:none;stroke-opacity:1"
         id="path2759" />
    </mask>
    <mask
       id="mask2918">
      <path
         d="M 58.75,323 C 111.49374,297.64028 143.76705,271.46843 165.25,246.25 C 142.08792,229.67984 148.89321,230.97255 169.75,239 C 179.56312,242.77692 196.5,243 215.5,211 C 230.08614,186.43387 243,176 243,176 C 226.57963,177.83647 197.96703,172.66749 247.25,167.375 C 268.43972,141.34871 294.85573,118.8066 319.75,95.25 C 271.64903,114.85374 288.80801,93.973637 328.625,87.624999 C 355.19151,51.283011 403.99469,31.754111 457.625,15.874999 C 420.6123,17.185702 380.06462,15.711261 364.125,33.624999 L 364.375,24.999999 C 328.41071,33.944796 243.46044,64.797851 241.12341,71.533288 C 239.3281,76.707466 233.4207,88.264542 230.42842,99.198841 C 229.49892,92.561732 229.70807,85.241428 231.13553,77.190142 C 206.05352,88.567131 159.71084,123.21429 157.68481,131.46059 C 156.51283,136.23074 153.46702,172.57684 156.09382,188.73624 C 147.4356,175.31693 146.24238,158.50444 144.70689,141.84752 C 135.88836,150.80708 99.65681,165.38625 106.41957,235.75884 C 98.92843,227.45455 100.41628,214.16193 98.28784,202.87837 C 74.27558,233.48435 53.0941,278.86739 54,324"
         style="fill:white;fill-opacity:1;fill-rule:evenodd;stroke:white;stroke-width:0.625;stroke-linecap:butt;stroke-linejoin:round;stroke-miterlimit:4;stroke-dasharray:none;stroke-opacity:1"
         id="path2901" />
    </mask>
    <radialGradient
       cx="90.20755"
       cy="264.08795"
       r="32.989033"
       fx="90.20755"
       fy="264.08795"
       id="radialGradient2939"
       xlink:href="#linearGradient2772"
       gradientUnits="userSpaceOnUse"
       gradientTransform="matrix(0.94132,0.337514,-0.98599,2.749907,261.7786,-483.4282)"
       spreadMethod="reflect" />
    <radialGradient
       cx="148.51024"
       cy="189.07526"
       r="28.557117"
       fx="148.51024"
       fy="189.07526"
       id="radialGradient2941"
       xlink:href="#linearGradient2772"
       gradientUnits="userSpaceOnUse"
       gradientTransform="matrix(1.460496,0.29257,-0.660658,3.297986,54.61396,-468.7349)" />
    <radialGradient
       cx="190.25296"
       cy="133.78008"
       r="42.904423"
       fx="190.25296"
       fy="133.78008"
       id="radialGradient2943"
       xlink:href="#linearGradient2772"
       gradientUnits="userSpaceOnUse"
       gradientTransform="matrix(0.801714,0.814186,-2.863742,2.819885,451.7457,-410.501)" />
    <radialGradient
       cx="318.53406"
       cy="70.835747"
       r="66.834991"
       fx="318.53406"
       fy="70.835747"
       id="radialGradient2945"
       xlink:href="#linearGradient2819"
       gradientUnits="userSpaceOnUse"
       gradientTransform="matrix(-0.242293,-0.409266,1.629153,-0.964487,238.4446,289.0525)" />
    <radialGradient
       cx="224.14607"
       cy="109.50309"
       r="70.887459"
       fx="224.14607"
       fy="109.50309"
       id="radialGradient2947"
       xlink:href="#linearGradient2819"
       gradientUnits="userSpaceOnUse"
       gradientTransform="matrix(1.193173,-1.217808,0.320792,0.314302,-94.0463,401.4048)" />
    <radialGradient
       cx="282.98776"
       cy="40.732708"
       r="110.10155"
       fx="282.98776"
       fy="40.732708"
       id="radialGradient2949"
       xlink:href="#linearGradient2819"
       gradientUnits="userSpaceOnUse"
       gradientTransform="matrix(0.681974,-0.406566,9.517416e-2,0.159645,98.53223,182.9053)" />
    <radialGradient
       cx="119.7226"
       cy="269.64893"
       r="71.064232"
       fx="119.7226"
       fy="269.64893"
       id="radialGradient2951"
       xlink:href="#linearGradient2772"
       gradientUnits="userSpaceOnUse"
       gradientTransform="matrix(1.44987,-0.950029,0.291847,0.445398,-146.5661,258.3893)" />
    <radialGradient
       cx="196.33719"
       cy="186.43681"
       r="57.805977"
       fx="196.33719"
       fy="186.43681"
       id="radialGradient2953"
       xlink:href="#linearGradient2772"
       gradientUnits="userSpaceOnUse"
       gradientTransform="matrix(1.836943,-1.772508,0.572807,0.593626,-274.3391,424.107)" />
  </defs>
  <g
     transform="matrix(0.804235,0,0,0.804235,12.64606,4.27598)"
     id="g2923">
    <path
       d="M 58.75,323 C 111.49374,297.64028 143.76705,271.46843 165.25,246.25 C 142.08792,229.67984 148.89321,230.97255 169.75,239 C 179.56312,242.77692 196.5,243 215.5,211 C 230.08614,186.43387 243,176 243,176 C 226.57963,177.83647 197.96703,172.66749 247.25,167.375 C 268.43972,141.34871 294.85573,118.8066 319.75,95.25 C 271.64903,114.85374 288.80801,93.973637 328.625,87.624999 C 355.19151,51.283011 403.99469,31.754111 457.625,15.874999 C 420.6123,17.185702 380.06462,15.711261 364.125,33.624999 L 364.375,24.999999 C 328.41071,33.944796 243.46044,64.797851 241.12341,71.533288 C 239.3281,76.707466 233.4207,88.264542 230.42842,99.198841 C 229.49892,92.561732 229.70807,85.241428 231.13553,77.190142 C 206.05352,88.567131 159.71084,123.21429 157.68481,131.46059 C 156.51283,136.23074 153.46702,172.57684 156.09382,188.73624 C 147.4356,175.31693 146.24238,158.50444 144.70689,141.84752 C 135.88836,150.80708 99.656808,165.38625 106.41957,235.75884 C 98.928432,227.45455 100.41628,214.16193 98.287843,202.87837 C 74.27558,233.48435 53.094098,278.86739 54,324"
       style="fill:white;fill-opacity:1;fill-rule:evenodd;stroke:none;stroke-width:1.875;stroke-linecap:butt;stroke-linejoin:round;stroke-miterlimit:4;stroke-dasharray:none;stroke-opacity:1"
       id="path2906" />
    <g
       mask="url(#mask2918)"
       id="g2891">
      <path
         d="M 102.53048,182.72583 C 97.580736,232.93041 111.72287,249.19387 111.72287,249.19387 C 86.603545,276.13114 68.625042,307.82895 48.790368,338.28932 C 40.305078,288.32044 58.218463,236.46594 102.53048,182.72583 z "
         style="fill:url(#radialGradient2939);fill-opacity:1;fill-rule:evenodd;stroke:none;stroke-width:1px;stroke-linecap:butt;stroke-linejoin:miter;stroke-opacity:1"
         id="path2782" />
      <path
         d="M 158.39192,199.69639 C 151.46268,173.29774 150.66337,146.89908 147.07821,120.50043 C 109.09606,153.43683 91.11242,189.39951 109.60155,252.02229 C 125.29236,234.58032 140.87213,217.13836 158.39192,199.69639 z "
         style="fill:url(#radialGradient2941);fill-opacity:1;fill-rule:evenodd;stroke:none;stroke-width:1px;stroke-linecap:butt;stroke-linejoin:miter;stroke-opacity:1"
         id="path2794" />
      <path
         d="M 156.97771,201.81771 C 144.67199,129.60359 150.18165,95.376593 236.88077,65.346104 C 230.08759,91.362328 228.72996,108.89711 232.63813,130.39993 C 206.26337,153.05124 181.49021,177.30414 156.97771,201.81771 z "
         style="fill:url(#radialGradient2943);fill-opacity:1;fill-rule:evenodd;stroke:none;stroke-width:1px;stroke-linecap:butt;stroke-linejoin:miter;stroke-opacity:1"
         id="path2804" />
      <path
         d="M 226.27417,133.93546 C 219.59762,39.280856 289.88791,30.979281 358.50314,20.798377 C 308.83086,65.039352 264.63301,102.8935 226.27417,133.93546 z "
         style="fill:url(#radialGradient2945);fill-opacity:1;fill-rule:evenodd;stroke:none;stroke-width:1px;stroke-linecap:butt;stroke-linejoin:miter;stroke-opacity:1"
         id="path2817" />
      <path
         d="M 185.61553,174.24055 C 287.40338,179.15538 267.49177,154.83123 327.39044,92.216162 C 294.44001,103.94418 279.68904,102.93258 265.16504,101.7621 C 237.93055,125.92158 210.98578,150.08107 185.61553,174.24055 z "
         style="fill:url(#radialGradient2947);fill-opacity:1;fill-rule:evenodd;stroke:none;stroke-width:1px;stroke-linecap:butt;stroke-linejoin:miter;stroke-opacity:1"
         id="path2874" />
      <path
         d="M 260.21529,108.47962 C 341.10537,89.98954 416.0238,76.223597 479.4184,9.4846682 C 438.49539,8.2297104 397.83852,1.1196686 356.02827,19.384164 L 260.21529,108.47962 z "
         style="fill:url(#radialGradient2949);fill-opacity:1;fill-rule:evenodd;stroke:none;stroke-width:1px;stroke-linecap:butt;stroke-linejoin:miter;stroke-opacity:1"
         id="path2829" />
      <path
         d="M 135.7645,226.56645 C 151.50973,235.11469 173.99474,245.90953 184.55487,252.7294 C 112.98003,325.58091 90.636999,319.14343 45.961941,343.23907 C 78.863151,294.90899 99.650984,262.36255 135.7645,226.56645 z "
         style="fill:url(#radialGradient2951);fill-opacity:1;fill-rule:evenodd;stroke:none;stroke-width:1px;stroke-linecap:butt;stroke-linejoin:miter;stroke-opacity:1"
         id="path2839" />
      <path
         d="M 135.0574,226.21289 C 194.04963,259.83475 211.66705,259.82356 251.16935,173.55857 C 218.06769,164.90097 224.47461,185.31926 179.2792,183.88035 C 165.19467,195.95906 148.49952,214.38084 135.0574,226.21289 z "
         style="fill:url(#radialGradient2953);fill-opacity:1;fill-rule:evenodd;stroke:none;stroke-width:1px;stroke-linecap:butt;stroke-linejoin:miter;stroke-opacity:1"
         id="path2862" />
    </g>
    <path
       d="M 58.75,323 C 111.49374,297.64028 143.76705,271.46843 165.25,246.25 C 142.08792,229.67984 148.89321,230.97255 169.75,239 C 179.56312,242.77692 196.5,243 215.5,211 C 230.08614,186.43387 243,176 243,176 C 226.57963,177.83647 197.96703,172.66749 247.25,167.375 C 268.43972,141.34871 294.85573,118.8066 319.75,95.25 C 271.64903,114.85374 288.80801,93.973637 328.625,87.624999 C 355.19151,51.283011 403.99469,31.754111 457.625,15.874999 C 420.6123,17.185702 380.06462,15.711261 364.125,33.624999 L 364.375,24.999999 C 328.41071,33.944796 243.46044,64.797851 241.12341,71.533288 C 239.3281,76.707466 233.4207,88.264542 230.42842,99.198841 C 229.49892,92.561732 229.70807,85.241428 231.13553,77.190142 C 206.05352,88.567131 159.71084,123.21429 157.68481,131.46059 C 156.51283,136.23074 153.46702,172.57684 156.09382,188.73624 C 147.4356,175.31693 146.24238,158.50444 144.70689,141.84752 C 135.88836,150.80708 99.656808,165.38625 106.41957,235.75884 C 98.928432,227.45455 100.41628,214.16193 98.287843,202.87837 C 74.27558,233.48435 53.094098,278.86739 54,324"
       style="fill:none;fill-opacity:0.75;fill-rule:evenodd;stroke:black;stroke-width:1.875;stroke-linecap:butt;stroke-linejoin:round;stroke-miterlimit:4;stroke-dasharray:none;stroke-opacity:1"
       id="path2768" />
    <g
       id="g2764">
      <path
         d="M 281.5,87.25 C 163.1173,181.45514 64.982893,280.99684 11.6875,391.75 L 15,391.75 C 15,391.75 21.5,382.25 26.25,378.25 C 31,374.25 45.5,364.5 45.5,364.5 C 45.5,364.5 57.982756,326.62206 83.792154,289.85251 C 109.60155,253.08295 145.664,218.08117 153.08862,210.30299 C 160.51324,202.52482 176.125,185.75 176.125,185.75"
         style="fill:#c7a272;fill-opacity:1;fill-rule:evenodd;stroke:black;stroke-width:1.875;stroke-linecap:round;stroke-linejoin:round;stroke-miterlimit:4;stroke-dasharray:none;stroke-opacity:1"
         id="path1873" />
      <path
         d="M 20.5,356 L 50.5,377.5 L -13.5,415"
         style="fill:black;fill-opacity:1;fill-rule:evenodd;stroke:none;stroke-width:1px;stroke-linecap:butt;stroke-linejoin:miter;stroke-opacity:1"
         mask="url(#mask2761)"
         id="path2757" />
    </g>
  </g>
</svg>
